{"title":"Firequake.2014.720p.BRRip.XviD.AC3-RARBG","uid":11926966,"size":2873245849,"categoryP":"video","categoryS":"hd___movies","magnet":"?xt=urn:btih:9a4cbb9e70df8fc43a9d2c2dff628a41c6acf8c3&amp;dn=Firequake.2014.720p.BRRip.XviD.AC3-RARBG&amp;tr=udp%3A%2F%2Ftracker.openbittorrent.com%3A80&amp;tr=udp%3A%2F%2Fopen.demonii.com%3A1337&amp;tr=udp%3A%2F%2Ftracker.coppersurfer.tk%3A6969&amp;tr=udp%3A%2F%2Fexodus.desync.com%3A6969","seeders":2,"leechers":1,"uploader":"vickey1992","files":4,"time":1431720371,"description":"Format                                   : AVI\nFormat/Info                              : Audio Video Interleave\nFormat profile                           : OpenDML\nFile size                                : 2.67 GiB\nDuration                                 : 1h 27mn\nOverall bit rate                         : 4 393 Kbps\nMovie name                               : RARBG.COM - Firequake.2014.720p.BRRip.XviD.AC3-RARBG\nWriting library                          : VirtualDub build 35491/release\nComment                                  : RARBG.COM - Firequake.2014.720p.BRRip.XviD.AC3-RARBG\n\nVideo\nID                                       : 0\nFormat                                   : MPEG-4 Visual\nFormat profile                           : Simple@L5\nFormat settings, BVOP                    : No\nFormat settings, QPel                    : No\nFormat settings, GMC                     : No warppoints\nFormat settings, Matrix                  : Default (H.263)\nCodec ID                                 : XVID\nCodec ID/Hint                            : XviD\nDuration                                 : 1h 27mn\nBit rate                                 : 3 742 Kbps\nWidth                                    : 1 280 pixels\nHeight                                   : 720 pixels\nDisplay aspect ratio                     : 16:9\nFrame rate                               : 23.976 fps\nColor space                              : YUV\nChroma subsampling                       : 4:2:0\nBit depth                                : 8 bits\nScan type                                : Progressive\nCompression mode                         : Lossy\nBits/(Pixel*Frame)                       : 0.169\nStream size                              : 2.28 GiB (85%)\nWriting library                          : Lavc56.13.100\n\nAudio\nID                                       : 1\nFormat                                   : AC-3\nFormat/Info                              : Audio Coding 3\nMode extension                           : CM (complete main)\nFormat settings, Endianness              : Big\nCodec ID                                 : 2000\nDuration                                 : 1h 27mn\nBit rate mode                            : Constant\nBit rate                                 : 640 Kbps\nChannel(s)                               : 6 channels\nChannel positions                        : Front: L C R, Side: L R, LFE\nSampling rate                            : 48.0 KHz\nBit depth                                : 16 bits\nCompression mode                         : Lossy\nStream size                              : 399 MiB (15%)\nAlignment                                : Aligned on interleaves\nInterleave, duration                     : 42 ms (1.00 video frame)\nInterleave, preload duration             : 512 ms\n\n\n\n\nNotes:\nGreetz to all!","torrent":{"xt":"urn:btih:9a4cbb9e70df8fc43a9d2c2dff628a41c6acf8c3","amp;dn":"Firequake.2014.720p.BRRip.XviD.AC3-RARBG","amp;tr":["udp%3A%2F%2Ftracker.openbittorrent.com%3A80","udp%3A%2F%2Fopen.demonii.com%3A1337","udp%3A%2F%2Ftracker.coppersurfer.tk%3A6969","udp%3A%2F%2Fexodus.desync.com%3A6969"],"infoHash":"9a4cbb9e70df8fc43a9d2c2dff628a41c6acf8c3","infoHashBuffer":{"type":"Buffer","data":[154,76,187,158,112,223,143,196,58,157,44,45,255,98,138,65,198,172,248,195]},"announce":[],"urlList":[]}}